<?xml version="1.0" encoding="utf-8"?>
<!-- Generator: Adobe Illustrator 22.0.0, SVG Export Plug-In . SVG Version: 6.00 Build 0)  -->
<svg version="1.1" id="Layer_1" xmlns="http://www.w3.org/2000/svg" xmlns:xlink="http://www.w3.org/1999/xlink" x="0px" y="0px"
	 viewBox="0 0 1400 980" style="enable-background:new 0 0 1400 980;" xml:space="preserve">
<style type="text/css">
	.st0{fill:#FFDC48;}
	.st1{fill:#FFBCA1;}
	.st2{fill:#B70B0B;}
	.st3{fill:#8CBC2F;}
	.st4{fill:#FFFFFF;}
	.st5{fill:#FF8F33;}
</style>
<g>
	<g>
		<g>
			<path d="M254,140c-54,0-107.7,0-161.9,0c-5.8,0-11,4.5-10.8,10.4c2.9,86.7,5.8,173.2,8.7,260c0.1,2.9,0.2,5.9,0.3,8.7
				c0.2,5.9,4.8,10.9,10.8,10.9c48.1,0,96.2,0,144.3,0c6,0,10.6-5.2,10.8-11.1c2.9-86.7,5.8-173.6,8.7-260.3
				c0.1-2.9,0.2-5.8,0.3-8.7c0.5-14-21.2-14-21.6,0c-2.9,86.7-5.8,173.4-8.7,260.2c-0.1,2.9-0.2,6.3-0.3,9.1
				c3.6-3.6,7.2-6.3,10.8-10.3c-48.1,0-96.2,0-144.3,0c3.6,4,7.2,6.7,10.8,10.3c-2.9-86.7-5.8-173.7-8.7-260.5
				c-0.1-2.9-0.2-5.2-0.3-8.1c-3.6,3.6-7.2,7.3-10.8,11.3c54.1,0,107.9,0,161.9,0C268,162,268,140,254,140z"/>
		</g>
	</g>
	<g>
		<g>
			<polygon class="st0" points="215.5,239 129.4,239 134.2,383 210.6,383 			"/>
		</g>
		<g>
			<g>
				<path class="st0" d="M215,228c-29,0-56.9,0-85.6,0c-5.8,0-11,4.8-10.8,10.7c1.6,48.5,3.3,96.5,4.9,145
					c0.2,5.9,4.8,10.3,10.8,10.3c25.4,0,50.9,0,76.3,0c6,0,10.6-4.5,10.8-10.3c1.6-48.5,3.3-96.8,4.9-145.3
					c0.5-14-21.2-13.8-21.6,0.1c-1.6,48.5-3.3,96.9-4.9,145.4c3.6-3.6,7.2-7.9,10.8-10.9c-25.4,0-50.9,0-76.3,0
					c3.6,3,7.2,7.4,10.8,11c-1.6-48.5-3.3-96.2-4.9-144.7c-3.6,3.6-7.2,6.7-10.8,11.7c28.7,0,56.6,0,85.6,0C230,251,230,228,215,228
					z"/>
			</g>
		</g>
	</g>
	<g>
		<g>
			<polygon points="196.8,215.9 173.9,216.3 206.5,81.4 303.9,63.2 307.9,84.5 224.4,100.1 			"/>
		</g>
	</g>
</g>
<g>
	<g>
		<g>
			<g>
				<path d="M452,118c0,0,129,0,194,0c14,0,14-21,0-21c-65,0-128,0-194,0C438,97,438,118,452,118C452,118,438,118,452,118z"/>
			</g>
		</g>
		<g>
			<g>
				<path d="M443.5,101.6c-27,39.4-30.6,87.2-9.1,129.9c18.2,36,54.7,61.4,94.3,67.6c41.3,6.5,83.1-7.5,112.6-36.9
					c30.3-30.1,43.3-75.5,33.7-117c-2.5-10.7-7.1-20.6-12.2-30.3c-3.6-6.7-8.6-17.9-17.5-17.9c-4.1,0-8.3,0-12.4,0
					c-21.7,0-43.4,0-65.1,0c-38.3,0-77.9,0-115.9,0c-14,0-14,21,0,21c66,0,129.2,0,193.4,0c-3.1-2-6.2-3.6-9.3-5.4
					c13.3,19.4,21.3,40.8,20.6,64.5c-0.6,18.4-6.7,36.1-16.2,51.7c-19.3,31.5-54.8,49.9-91.3,50.3c-36.9,0.4-71.6-19.5-91.3-50.3
					c-9.9-15.5-15.3-33.4-16.2-51.7c-1.2-23.6,7.5-45.4,20.6-64.6C470.1,101,451.4,90.2,443.5,101.6z"/>
			</g>
		</g>
	</g>
	<g>
		<g>
			<path d="M537,289c0,0,0,86,0,129c0,13,22,13,22,0c0-43,0-86,0-129C559,275,537,275,537,289C537,289,537,275,537,289z"/>
		</g>
	</g>
	<g>
		<g>
			<path d="M482,430c0,0,90,0,134,0c15,0,15-21,0-21c-44,0-89,0-134,0C467,409,467,430,482,430C482,430,467,430,482,430z"/>
		</g>
	</g>
	<g>
		<path class="st1" d="M630.8,163c-53.4,0-107.4,0-160.6,0c-5.2-1-11.4,0.9-13.1,6.6c-0.9,2.4-1,5.2-0.3,7.6
			c2.9,48.9,42.9,87.2,92.3,87.9c50.8,0.8,91.7-42,92.5-91.7C641.7,167.5,636.6,163,630.8,163z"/>
	</g>
</g>
<g>
	<g>
		<g>
			<g>
				<path d="M825,98c0,0,78,0,116,0c15,0,15-22,0-22c-38,0-76,0-116,0C813,76,813,98,825,98C825,98,813,98,825,98z"/>
			</g>
		</g>
		<g>
			<g>
				<path d="M816.2,84c-7.5,18.7-9.9,39.7-12,59.6c-2.4,22.1-2,44.1,1.9,66c6.4,35.8,26.5,78.6,64.5,89
					c37.4,10.3,67.4-22.4,80.9-53.3c18.2-41.5,16.5-87.3,8.9-131c-1.8-10.3-4.1-20.7-8-30.4c-1.8-4.5-5.2-8-10.4-8
					c-38.5,0-77,0-117,0c-12,0-12,22,0,22c40,0,78.5,0,117,0c-3.5-2-7-5.4-10.4-8.1c6.8,16.9,9.3,35.7,11.2,53.8
					c2.1,20.1,2.4,40.3-1.2,60.2c-5.1,28.6-22,74.1-57.3,74.9c-34.4,0.7-51.1-45.4-56.8-72.1c-4.2-19.9-3.8-40.3-2-60.4
					c1.7-18.9,4.4-38.8,11.5-56.4C842.3,76.8,821.3,71.3,816.2,84z"/>
			</g>
		</g>
	</g>
	<g>
		<g>
			<path d="M872,289c0,0,0,85,0,128c0,14,22,14,22,0c0-43,0-85,0-128C894,275,872,275,872,289C872,289,872,275,872,289z"/>
		</g>
	</g>
	<g>
		<g>
			<path d="M816,430c0,0,91,0,136,0c14,0,14-22,0-22c-45,0-90,0-136,0C802,408,802,430,816,430C816,430,802,430,816,430z"/>
		</g>
	</g>
	<g>
		<path class="st2" d="M919.8,159c-22.8,0-45.5,0-68.1,0c-6.2-1-13.9,1.8-13.8,10.1c0.2,22.6,3,46,12.3,66.7
			c6.4,14.3,17.1,28.5,34,29.2c15.8,0.7,27-14.6,33.1-27.1c10.2-21.1,13.1-45.2,13.3-68.4C930.7,163.6,925.7,159,919.8,159z"/>
	</g>
</g>
<g>
	<g>
		<g>
			<path d="M1185,358c0,0,0,39,0,59c0,15,22,15,22,0c0-20,0-40,0-59C1207,343,1185,343,1185,358C1185,358,1185,343,1185,358z"/>
		</g>
	</g>
	<g>
		<g>
			<path d="M1150,430c0,0,63,0,95,0c15,0,15-21,0-21c-32,0-63,0-95,0C1135,409,1135,430,1150,430C1150,430,1135,430,1150,430z"/>
		</g>
	</g>
	<g>
		<g>
			<path d="M1196.6,362.1c11.6,0.6,23.2-2.5,33.8-7c8.2-3.6,15.9-9.8,21.1-17c4.4-6,4.5-10.7,4.5-17.6c0-6.7,0-13.4,0-20.1
				c0-1.7,0-3.4,0-5.1c0,4.6-0.4,1.7,0.5-0.6c5.6-14,19.8-28.2,26.1-43.6c6.1-14.8,7-31.8,7-47.6c0-17.6-2.3-36.2-8-52.9
				c-4-12-10.7-27.5-25-27.5c-11.6,0-23.2,0-34.8,0c0,0,0,0,0,0c-15,0-15,22,0,22c12,0,25.5,0,38.3,0c-2.6,0-5.1-2-7.7-3
				c6.6,6.7,9.2,16.8,11.4,25.7c3.2,13,4,26.6,3.9,40c-0.1,11.2-1.3,22.5-4.7,33.3c-1.4,4.3-3.8,7.7-6.5,11.3
				c-5.6,7.2-10.4,14.9-14.8,22.9c-3.1,5.7-7.9,13.4-7.9,20.2c0,8.9,0,17.8,0,26.7c0,1.6,0,3.2,0,4.8c0,4.5,2.1-4-1.2,0
				c-4.2,5.1-10,8.5-16.2,10.7c-6.3,2.2-13.3,3.4-20,3C1182.7,339.7,1182.7,361.4,1196.6,362.1L1196.6,362.1z"/>
		</g>
	</g>
	<g>
		<g>
			<path d="M1196.6,340.4c-6.3,0.3-12.5-0.7-18.5-2.4c-5.5-1.6-10.7-4.3-15-8c-1.1-1-2.1-2.1-3.1-3.2c-2.9-3.2-1,0.8-1,1.4
				c0-1.6,0-3.2,0-4.7c0-9.1,0-18.1,0-27.2c0-6.8-4.2-13.5-7.2-19.3c-3.5-6.8-7.7-13.2-12-19.4c-3.1-4.4-7.2-8.5-9.3-13.6
				c-4.4-10.6-5.3-22.6-5.7-34c-0.4-13.4,0.7-27,3.4-40.1c2-9.5,4.8-20.7,11.8-27.8c-2.6,1.1-5.1,3-7.7,3c31.3,0,61.6,0,94.6,0
				c12,0,12-22,0-22c-21,0-44.2,0-65.9,0c-9.3,0-18.7,0-28,0c-13.2,0-20.1,20.9-23.3,31.1c-9.6,30.4-11.3,71.2,2,100.7
				c3.8,8.3,10.7,15.4,15.6,23.1c3.6,5.7,7.2,13.6,9,18.4c1.2,3.2-0.4-0.4-0.4-0.6c0,2.1,0,4.1,0,6.2c0,7.2,0,14.4,0,21.6
				c0,27,37,39.9,60,38.7C1209.9,361.4,1210.6,339.7,1196.6,340.4L1196.6,340.4z"/>
		</g>
	</g>
	<g>
		<path class="st3" d="M1253.5,188h-41h-16.2h-56.9c-1.8,18-0.5,29.6,1.1,40.8c1.6,11.3,19.7,37.4,26,46.7
			c6.3,9.3,5.4,35.8,6.6,43.4c1.2,7.5,17.3,8.1,23,8.1h0.1c5.4,0,22.1-0.6,23.3-8.1c1.2-7.5,0.4-34.2,6.7-43.5
			c6.3-9.3,24.5-35.4,26.1-46.6C1253.9,217.5,1255.3,206,1253.5,188z"/>
	</g>
	<g>
		<g>
			<polygon points="1213.5,179 1185,179 1270.5,78.5 1287,92.7 			"/>
		</g>
	</g>
	<g>
		<g>
			<path d="M1295.4,49c-24.6-1.8-49.2-3.7-73.8-5.5c-11.9-0.9-13.1,14.4-5.5,20.2c33.1,25,66.2,50,99.3,75c7.5,5.7,19-3.7,15.9-12.2
				c-8.5-23.2-17-46.3-25.5-69.5c-4.8-13-25.7-7.4-20.9,5.8c8.5,23.2,17,46.3,25.5,69.5c5.3-4.1,10.6-8.1,15.9-12.2
				c-33.1-25-66.2-50-99.3-75c-1.8,6.7-3.6,13.4-5.5,20.2c24.6,1.8,49.2,3.7,73.8,5.5C1309.3,71.7,1309.2,50.1,1295.4,49z"/>
		</g>
	</g>
</g>
<g>
	<g>
		<g>
			<path d="M181,811c0,0,0,71,0,105c0,14,23,14,23,0c0-34,0-68,0-105C204,799,181,799,181,811C181,811,181,799,181,811z"/>
		</g>
	</g>
	<g>
		<g>
			<path d="M140,928c0,0,71,0,104,0c15,0,15-21,0-21c-33,0-68,0-104,0C127,907,127,928,140,928C140,928,127,928,140,928z"/>
		</g>
	</g>
	<g>
		<g>
			<path d="M71.2,721c37.9,33.5,75.8,66.9,113.8,100.4c4.7,4.1,10.6,4,15.3,0c39.3-33.5,78.6-66.7,117.9-100.2
				c7.4-6.3,1.2-18.2-7.7-18.2c-77.2,0-153.5,0-231.5,0c-13,0-13,22,0,22c78,0,154.3,0,231.5,0c-2.6-8-5.1-12.8-7.7-18.9
				C263.6,739.5,224.3,771,185,806c5.1,0,10.2,0,15.3,0c-37.9-35-75.8-66.9-113.8-100.4C76.1,696.4,60.7,711.7,71.2,721z"/>
		</g>
	</g>
	<g>
		<g>
			<polygon class="st3" points="171.1,750 194.3,770.4 218.3,750 			"/>
		</g>
		<g>
			<g>
				<path class="st3" d="M163.5,757.3c7.7,6.8,15.4,13.6,23.2,20.4c4.7,4.1,10.6,4,15.3,0c8-6.8,16-13.1,24-19.9
					c7.4-6.3,1.2-17.9-7.7-17.9c-15.7,0-31.3,0-47.3,0c-13,0-13,21,0,21c16,0,31.6,0,47.3,0c-2.6-7-5.1-12.3-7.7-18.5
					c-8,6.8-16,13.5-24,20.5c5.1,0,10.2,0,15.3,0c-7.7-7-15.4-13.9-23.2-20.7C168.4,733.1,153,748.1,163.5,757.3z"/>
			</g>
		</g>
	</g>
	<g>
		<g>
			<path d="M231.2,721c27.1-29.1,54.1-58.2,81.2-87.2c9.5-10.2-5.8-25.5-15.3-15.3c-27.1,29.1-54.1,58.2-81.2,87.2
				C206.4,715.9,221.7,731.2,231.2,721L231.2,721z"/>
		</g>
	</g>
	<g>
		<g>
			<path class="st3" d="M287,658.7c0,8.1-6.5,14.6-14.6,14.6c-8.1,0-14.6-6.5-14.6-14.6c0-8.1,6.5-14.6,14.6-14.6
				C280.5,644.1,287,650.6,287,658.7z"/>
		</g>
		<g>
			<g>
				<path class="st3" d="M276.2,658.7c-0.3,4.9-7.3,4.9-7.6,0C268.4,653.8,276,653.8,276.2,658.7c0.7,13.9,22.4,14,21.6,0
					c-0.8-14.4-11.1-24.7-25.4-25.4c-14.3-0.8-24.7,12.2-25.4,25.4c-0.8,14.3,12.2,24.7,25.4,25.4c14.3,0.8,24.7-12.2,25.4-25.4
					C298.6,644.7,277,644.8,276.2,658.7z"/>
			</g>
		</g>
	</g>
</g>
<g>
	<g>
		<g>
			<g>
				<path d="M598,605c-55,0-86.2,0-140.3,0c-5.7,0-11,4.9-10.8,10.8c2.9,86.7,5.8,205.9,8.7,292.6c0.1,2.9,0.2,5.8,0.3,8.7
					c0.2,5.9,4.8,10.9,10.8,10.9c48.1,0,74.6,0,122.7,0c6,0,10.6-5,10.8-10.9c2.9-86.7,5.8-206,8.7-292.7c0.1-2.9,0.2-5.7,0.3-8.6
					c0.5-14-21.2-13.9-21.6,0c-2.9,86.7-5.8,205.9-8.7,292.6c-0.1,2.9-0.2,6.1-0.3,9c3.6-3.6,7.2-7.4,10.8-10.4
					c-48.1,0-74.6,0-122.7,0c3.6,3,7.2,6.8,10.8,10.4c-2.9-86.7-5.8-206.1-8.7-292.8c-0.1-2.9-0.2-5.1-0.3-8
					c-3.6,3.6-7.2,7.4-10.8,11.4c54.1,0,85.3,0,140.3,0C612,628,612,605,598,605z"/>
			</g>
		</g>
		<g>
			<g>
				<polygon class="st0" points="559.4,705 494.9,705 499.8,882 554.5,882 				"/>
			</g>
			<g>
				<g>
					<path class="st0" d="M559,694c-28,0-35.4,0-64.1,0c-5.8,0-11,4.8-10.8,10.7c1.6,48.5,3.3,129.2,4.9,177.8
						c0.2,5.9,4.8,10.6,10.8,10.6c25.4,0,29.2,0,54.7,0c6,0,10.6-4.8,10.8-10.7c1.6-48.5,3.3-129.4,4.9-177.9
						c0.5-14-21.2-13.9-21.6,0c-1.6,48.5-3.3,128.7-4.9,177.2c3.6-3.6,7.2-7.6,10.8-11.6c-25.4,0-29.2,0-54.7,0
						c3.6,4,7.2,8,10.8,11.6c-1.6-48.5-3.3-129.2-4.9-177.7c-3.6,3.6-7.2,8.1-10.8,11.1c28.7,0,36.1,0,64.1,0
						C575,715,575,694,559,694z"/>
				</g>
			</g>
		</g>
		<g>
			<g>
				<polygon points="540.7,681.7 517.8,682.2 550.5,547.2 647.8,529.1 651.8,550.4 568.3,565.9 				"/>
			</g>
		</g>
	</g>
	<g>
		<path class="st4" d="M530.9,889.1c-3.4,0-6.6-1.6-8.6-4.3l-16.4-21.5c-3.6-4.8-2.7-11.6,2.1-15.2l21.5-16.4
			c1.9-1.4,4.2-2.2,6.5-2.2c3.4,0,6.6,1.6,8.6,4.3l16.4,21.5c1.7,2.3,2.5,5.1,2.1,8c-0.4,2.9-1.9,5.4-4.2,7.2l-21.5,16.4
			C535.5,888.3,533.3,889.1,530.9,889.1z M536,836.8c-0.6,0-1.4,0.1-2.2,0.7l-21.5,16.4c-1.6,1.2-1.9,3.5-0.7,5.1l16.4,21.5
			c0.7,0.9,1.7,1.4,2.9,1.4c0.6,0,1.4-0.1,2.2-0.7l21.5-16.4c1.6-1.2,1.9-3.5,0.7-5.1l-16.4-21.5C538.2,837.3,537.2,836.8,536,836.8
			z"/>
	</g>
	<g>
		<path class="st4" d="M522.4,829.8c-5.3,0-9.8-3.8-10.7-9l-4.5-26.7c-0.5-2.8,0.2-5.7,1.9-8.1c1.7-2.4,4.2-3.9,7-4.4l26.7-4.5
			c0.6-0.1,1.2-0.1,1.8-0.1c5.3,0,9.8,3.8,10.7,9l4.5,26.7c0.5,2.8-0.2,5.7-1.9,8.1c-1.7,2.4-4.2,3.9-7,4.4l-26.7,4.5
			C523.6,829.8,523,829.8,522.4,829.8z M544.6,784.2c-0.2,0-0.4,0-0.6,0l-26.7,4.5c-0.9,0.2-1.8,0.7-2.3,1.5
			c-0.6,0.8-0.8,1.7-0.6,2.7l4.5,26.7c0.3,1.9,2.2,3.3,4.2,3l26.7-4.5c0.9-0.2,1.8-0.7,2.3-1.5c0.6-0.8,0.8-1.7,0.6-2.7l-4.5-26.7
			C547.8,785.5,546.3,784.2,544.6,784.2z"/>
	</g>
	<g>
		<path class="st4" d="M524.2,777.8c-0.7,0-1.4-0.1-2.1-0.2l-26.5-5.3c-2.8-0.6-5.3-2.2-6.9-4.6c-1.6-2.4-2.2-5.3-1.6-8.1l5.3-26.5
			c1-5,5.5-8.7,10.6-8.7c0.7,0,1.4,0.1,2.1,0.2l26.5,5.3c2.8,0.6,5.3,2.2,6.9,4.6c1.6,2.4,2.2,5.3,1.6,8.1l-5.3,26.5
			C533.9,774.2,529.4,777.8,524.2,777.8z M503,731.6c-1.7,0-3.2,1.2-3.5,2.9l-5.3,26.5c-0.2,0.9,0,1.9,0.5,2.7
			c0.5,0.8,1.4,1.4,2.3,1.5l26.5,5.3c1.9,0.4,3.9-0.9,4.2-2.8l5.3-26.5c0.2-0.9,0-1.9-0.5-2.7c-0.5-0.8-1.4-1.4-2.3-1.5l-26.5-5.3
			C503.5,731.6,503.2,731.6,503,731.6z"/>
	</g>
</g>
<g>
	<g>
		<g>
			<path d="M963,677c-52,0-105.3,0-158.5,0c-5.7,0-11.1,4.7-10.8,10.6c3.1,76.7,6.1,153.1,9.2,229.8c0.2,5.9,4.7,10.6,10.8,10.6
				c47,0,94.1,0,141.1,0c6.1,0,10.6-4.8,10.8-10.7c3.1-76.7,6.1-153.3,9.2-230c0.6-14-21.1-13.9-21.6,0
				c-3.1,76.7-6.1,153.6-9.2,230.3c3.6-3.6,7.2-6.6,10.8-10.6c-47,0-94.1,0-141.1,0c3.6,4,7.2,7,10.8,10.6
				c-3.1-76.7-6.1-153.6-9.2-230.3c-3.6,3.6-7.2,6.6-10.8,10.6c53.2,0,106.5,0,158.5,0C978,698,978,677,963,677z"/>
		</g>
	</g>
	<g>
		<g>
			<path d="M979,647c-5,0-9.2,0-14,0c3.6,4,7.2,7.8,10.8,11.4c-0.6-7.2-1.2-14.4-1.8-21.5c-0.5-5.9-4.5-10.9-10.8-10.9
				c-52.6,0-105.2,0-157.8,0c-6.3,0-10.3,5.3-10.8,11.2c-0.6,7.2-1.2,13.9-1.8,21.1c3.6-3.6,7.2-7.2,10.8-11.2c-4.8,0-9.7,0-14.5,0
				c-6.4,0-10.2,5.6-10.8,11.4c-1,9.7-2,19.2-3,29c-0.6,5.9,5.4,10.6,10.8,10.6c65.5,0,131,0,196.6,0c5.4,0,11.4-4.5,10.8-10.3
				c-1-9.7-2-19.2-3-28.9c-1.4-13.7-23.1-13.8-21.6,0.1c1,9.7,2,19.3,3,29c3.6-3.6,7.2-7.9,10.8-10.9c-65.5,0-131,0-196.6,0
				c3.6,3,7.2,7.4,10.8,11c1-9.7,2-19.8,3-29.5c-3.6,3.6-7.2,6.5-10.8,10.5c4.8,0,9.7,0,14.5,0c6.3,0,10.3-4.5,10.8-10.4
				c0.6-7.2,1.2-14.8,1.8-21.9c-3.6,3.6-7.2,7.4-10.8,10.4c52.6,0,105.2,0,157.8,0c-3.6-3-7.2-6.5-10.8-10.1
				c0.6,7.2,1.2,14.2,1.8,21.4c0.5,5.9,4.5,10.7,10.8,10.7c4.8,0,9,0,14,0C995,669,995,647,979,647z"/>
		</g>
	</g>
	<g>
		<g>
			<polygon points="894.2,643 874.8,643.3 901,548.6 983.8,533.1 987.2,551.2 916.2,564.5 			"/>
		</g>
	</g>
</g>
<g>
	<g>
		<g>
			<path d="M1170,928c0,0,63,0,96,0c14,0,14-21,0-21c-33,0-63,0-96,0C1156,907,1156,928,1170,928C1170,928,1156,928,1170,928z"/>
		</g>
	</g>
	<g>
		<g>
			<path d="M1217,609c0,0,38.6,0,57.8,0c-3.5-5-7-9.2-10.4-13.8c-4,22.7-7.7,47.4-4,70.3c4.8,29.9,22.3,57.1,25.1,87.3
				c1.8,19.1-1.3,41.6-9.4,59c-11,23.5-33.2,33.4-58.2,34.3c-5.9,0.2-10.9,4.8-10.9,10.8c0,19.9,0,39.1,0,59.1c0,14,21,14,21,0
				c0-20,0-39.2,0-59.1c-4,3.6-6.9,7.2-10.5,10.8c28.9-1,55.2-11.4,71.9-35.9c13-19,16.7-43.5,17.6-66c1.2-31.1-12.7-59-21.6-88.1
				c-7.6-25-4.6-51.1-0.2-76.5c1.2-6.8-2.9-13.3-10.4-13.3c-19.2,0-38.8,0-57.8,0C1204,588,1204,609,1217,609
				C1217,609,1204,609,1217,609z"/>
		</g>
	</g>
	<g>
		<g>
			<path d="M1217,588c0,0-38.4,0-57.6,0c-7.5,0-11.6,6.5-10.4,13.3c4.3,24.5,7.2,50,0.5,74.3c-8.3,29.7-23.2,57.3-22.4,88.8
				c0.6,22.8,4.5,46.3,16.6,66c15.7,25.6,44.5,36.3,73.4,37.3c-3.6-3.6-7.1-7.2-10.1-10.8c0,19.9,0,39.1,0,59.1c0,14,21,14,21,0
				c0-20,0-39.2,0-59.1c0-6.1-5.4-10.6-11.3-10.8c-24.7-0.9-45.9-10.3-57.7-32.7c-9.1-17.5-10.8-39.1-10.4-58.5
				c0.3-14,6.2-28.4,10.8-41.4c5.3-15.1,11.1-30.1,14-45.8c4.4-23.5,0.4-49.1-3.7-72.3c-3.5,4.6-7,8.8-10.4,13.8
				c19.2,0,37.6,0,57.6,0C1231,609,1231,588,1217,588C1217,588,1231,588,1217,588z"/>
		</g>
	</g>
	<g>
		<g>
			<path class="st5" d="M1173.8,716c-5.3,16-12.1,31.6-12.1,43.4c0,26.2,6.3,68.2,55.3,69.5v0c0,0,0,0,0,0c0,0,0,0,0,0v0
				c51-1.3,54.7-43.3,54.7-69.5c0-11.8-6.1-27.4-11.4-43.4H1173.8z"/>
		</g>
	</g>
</g>
</svg>
