<svg id="Layer_1" data-name="Layer 1" xmlns="http://www.w3.org/2000/svg" viewBox="0 0 218.3 394.86"><title>default_drink</title><path d="M499,244H340.5c-5.72,0-11.06,4.71-10.82,10.61,3.06,76.69,6.13,153.13,9.2,229.82A10.76,10.76,0,0,0,349.7,495H490.82a10.85,10.85,0,0,0,10.82-10.68q4.61-115,9.2-230c.56-14-21.09-13.87-21.64,0Q484.6,369.4,480,484.63C483.6,481,487.21,478,490.82,474H349.7c3.61,4,7.22,7,10.83,10.65q-4.61-115-9.21-230.28C347.71,258,344.11,261,340.5,265H499C514,265,514,244,499,244Z" transform="translate(-311.11 -100.14)"/><path d="M515,214H501q5.42,6,10.83,11.42c-.62-7.16-1.23-14.38-1.85-21.54-.5-5.87-4.54-10.88-10.82-10.88H341.35c-6.28,0-10.32,5.3-10.82,11.18-.62,7.16-1.24,13.9-1.85,21.06,3.61-3.61,7.21-7.24,10.82-11.24H325c-6.36,0-10.21,5.55-10.82,11.42-1,9.71-2,19.24-3,29C310.54,260.25,316.54,265,322,265H518.54c5.44,0,11.43-4.45,10.82-10.33-1-9.72-2-19.19-3-28.9-1.43-13.74-23.09-13.76-21.65.12,1,9.72,2,19.32,3,29,3.61-3.61,7.21-7.93,10.82-10.93H322c3.6,3,7.21,7.38,10.82,11,1-9.71,2-19.77,3-29.48C332.21,229.12,328.61,232,325,236h14.5c6.28,0,10.32-4.53,10.82-10.4.62-7.16,1.23-14.79,1.85-21.95C348.56,207.26,345,211,341.35,214H499.17c-3.61-3-7.22-6.54-10.82-10.14.61,7.16,1.23,14.24,1.84,21.39C490.7,231.13,494.73,236,501,236h14C531,236,531,214,515,214Z" transform="translate(-311.11 -100.14)"/><polygon points="119.13 109.85 99.68 110.2 125.91 15.41 208.7 0 212.06 18.1 141.05 31.31 119.13 109.85"/></svg>